<?xml version="1.0" standalone="no"?>
<!DOCTYPE svg PUBLIC "-//W3C//DTD SVG 20010904//EN"
 "http://www.w3.org/TR/2001/REC-SVG-20010904/DTD/svg10.dtd">
<svg version="1.0" xmlns="http://www.w3.org/2000/svg"
 width="1214.000000pt" height="1280.000000pt" viewBox="0 0 1214.000000 1280.000000"
 preserveAspectRatio="xMidYMid meet">
<g transform="translate(0.000000,1280.000000) scale(0.100000,-0.100000)"
fill="#000000" stroke="none">
<path d="M9231 12765 c-63 -54 -83 -193 -47 -330 8 -33 12 -63 8 -66 -4 -3
-43 -12 -87 -19 -140 -22 -226 -61 -483 -222 -216 -135 -259 -153 -362 -152
-62 0 -108 7 -170 26 -77 24 -87 25 -102 11 -28 -25 -58 -118 -65 -199 -5 -67
-8 -75 -29 -80 -45 -11 -129 23 -178 73 l-46 46 -15 -36 c-29 -70 -11 -150 67
-295 57 -106 56 -109 -44 -98 -79 8 -158 44 -194 90 -16 20 -32 36 -36 36 -4
0 -15 -26 -24 -57 -33 -114 -2 -246 83 -350 24 -29 43 -55 43 -57 0 -3 -64
-36 -142 -74 -221 -108 -329 -201 -408 -353 -38 -73 -62 -159 -44 -159 5 1 34
9 64 20 60 21 130 26 130 9 0 -6 -34 -61 -75 -122 -41 -62 -92 -152 -114 -200
-42 -89 -85 -207 -78 -213 1 -2 37 8 78 23 74 26 208 38 225 20 10 -10 -36
-97 -144 -277 -42 -69 -92 -161 -113 -205 -38 -82 -75 -203 -64 -213 5 -6 39
10 135 62 63 35 98 42 106 22 3 -9 -18 -66 -49 -133 -68 -145 -95 -225 -104
-303 -5 -55 -4 -60 14 -60 20 0 37 11 124 78 41 31 89 43 89 21 0 -41 -130
-308 -208 -429 -68 -104 -366 -445 -546 -626 -240 -239 -451 -383 -876 -598
-244 -124 -420 -200 -710 -308 -303 -113 -450 -193 -616 -336 -163 -141 -392
-458 -525 -727 l-79 -162 -99 -16 c-240 -39 -422 -137 -617 -332 -119 -118
-267 -318 -386 -520 -36 -60 -100 -169 -143 -242 -113 -192 -220 -329 -338
-435 -247 -219 -393 -290 -601 -289 -59 0 -117 -4 -127 -10 -39 -21 -23 -61
63 -157 22 -23 36 -48 32 -54 -5 -8 -48 -9 -153 -3 -236 13 -226 14 -229 -17
-3 -29 10 -60 66 -151 19 -31 32 -60 28 -64 -11 -11 -140 84 -234 172 -85 80
-90 84 -106 66 -22 -24 -32 -92 -26 -169 3 -35 2 -69 -2 -75 -9 -15 -46 20
-161 156 -157 184 -219 306 -312 617 -55 182 -71 220 -94 220 -70 0 -158 -261
-178 -524 -8 -99 37 -362 87 -516 68 -209 195 -478 302 -640 75 -116 253 -297
356 -365 276 -180 630 -210 989 -84 214 76 353 167 538 353 193 194 320 379
469 681 149 300 182 397 301 880 40 165 95 359 120 430 25 72 66 189 91 260
47 138 101 229 132 223 13 -3 16 -12 12 -48 -3 -25 -5 -128 -4 -230 1 -161 4
-202 28 -315 33 -158 132 -459 216 -655 91 -211 104 -264 120 -460 8 -104 6
-126 -16 -235 -30 -144 -64 -268 -100 -365 -21 -56 -43 -90 -105 -160 -92
-104 -115 -144 -130 -226 -16 -84 -5 -188 36 -349 78 -307 114 -408 285 -820
62 -148 131 -319 152 -380 l40 -110 -4 -142 c-3 -78 -1 -163 3 -190 5 -26 13
-109 18 -184 11 -173 26 -206 111 -249 32 -16 99 -42 147 -57 80 -24 103 -27
253 -27 145 -1 175 2 248 23 45 13 93 32 107 43 36 28 41 77 16 156 -38 116
-154 341 -221 427 -83 107 -111 165 -159 331 -22 76 -72 231 -111 344 -91 262
-137 440 -152 592 -17 163 6 361 52 455 37 75 120 154 210 202 108 56 248 153
390 271 235 194 235 194 238 177 2 -8 -17 -46 -41 -83 -65 -101 -141 -257
-172 -354 -33 -104 -43 -247 -25 -344 19 -100 192 -446 456 -908 68 -119 129
-229 135 -245 5 -15 19 -82 29 -150 22 -143 40 -189 119 -298 32 -44 62 -87
67 -95 5 -8 11 -82 14 -165 5 -133 8 -156 31 -205 60 -127 117 -164 290 -186
221 -28 264 -28 379 -4 111 23 157 42 167 65 8 23 -34 150 -81 238 -24 45
-108 179 -187 297 -148 220 -221 348 -265 467 -14 38 -58 151 -99 253 -113
287 -166 444 -245 730 -42 149 -39 169 41 309 79 140 144 213 273 303 312 221
586 444 708 579 156 172 264 369 317 579 37 144 44 243 42 604 -1 438 5 482
81 578 47 60 111 94 266 143 354 112 675 264 917 434 196 137 479 410 712 686
89 105 215 253 282 330 124 143 235 293 367 494 114 172 366 511 381 511 7 0
46 -9 87 -20 123 -34 171 -30 279 24 107 53 122 56 113 24 -3 -13 -11 -50 -17
-83 -22 -124 35 -280 165 -453 93 -122 105 -133 160 -139 67 -8 121 23 239
140 192 190 316 389 382 617 16 53 27 76 40 79 25 5 138 -9 154 -18 16 -10 49
-199 57 -331 4 -62 1 -148 -10 -249 -19 -166 -16 -221 16 -314 12 -35 17 -68
13 -85 -7 -32 -57 -84 -127 -131 -94 -63 -124 -154 -88 -273 64 -213 237 -393
445 -463 60 -20 89 -14 103 22 6 16 18 100 27 188 17 161 45 318 64 354 8 13
11 287 11 843 l0 823 -32 64 c-42 83 -117 160 -193 197 -59 29 -62 29 -211 26
-118 -2 -153 0 -157 11 -2 7 25 75 61 151 82 174 89 225 48 367 -49 170 -122
267 -232 309 -53 20 -71 22 -174 17 -63 -3 -185 -18 -270 -32 -204 -35 -352
-54 -367 -48 -7 3 -27 30 -44 60 -51 90 -147 213 -237 305 l-85 87 -8 88 c-41
436 -42 444 -114 748 -38 163 -55 295 -37 295 6 0 48 -9 94 -21 182 -45 470
-35 611 23 69 28 166 28 228 0 25 -11 82 -42 126 -70 121 -76 180 -103 249
-114 97 -15 126 2 269 161 179 196 216 276 181 388 -22 70 -84 132 -213 211
-156 95 -329 226 -472 357 -162 147 -254 212 -382 267 -54 23 -100 47 -102 53
-8 22 16 76 68 156 70 104 72 137 10 157 -39 14 -142 12 -257 -4 -44 -6 -48
-5 -48 14 0 11 16 54 36 96 43 90 38 106 -32 106 -53 0 -240 -48 -354 -90
-147 -55 -126 -57 -266 16 -69 36 -197 96 -284 134 -88 39 -187 83 -220 100
-33 16 -61 30 -64 30 -2 0 -18 -11 -35 -25z"/>
</g>
</svg>
